<?xml version="1.0" encoding="UTF-8" standalone="no"?>
<!-- Created with Inkscape (http://www.inkscape.org/) -->

<svg
   width="210mm"
   height="297mm"
   viewBox="0 0 210 297"
   version="1.1"
   id="svg1"
   inkscape:version="1.4 (e7c3feb100, 2024-10-09)"
   sodipodi:docname="urika-plain.svg"
   xmlns:inkscape="http://www.inkscape.org/namespaces/inkscape"
   xmlns:sodipodi="http://sodipodi.sourceforge.net/DTD/sodipodi-0.dtd"
   xmlns="http://www.w3.org/2000/svg"
   xmlns:svg="http://www.w3.org/2000/svg">
  <sodipodi:namedview
     id="namedview1"
     pagecolor="#ffffff"
     bordercolor="#000000"
     borderopacity="0.25"
     inkscape:showpageshadow="2"
     inkscape:pageopacity="0.0"
     inkscape:pagecheckerboard="0"
     inkscape:deskcolor="#d1d1d1"
     inkscape:document-units="mm"
     inkscape:zoom="0.7130787"
     inkscape:cx="255.93248"
     inkscape:cy="618.44506"
     inkscape:window-width="2560"
     inkscape:window-height="1359"
     inkscape:window-x="1920"
     inkscape:window-y="44"
     inkscape:window-maximized="1"
     inkscape:current-layer="layer1" />
  <defs
     id="defs1" />
  <g
     inkscape:label="Layer 1"
     inkscape:groupmode="layer"
     id="layer1">
    <g
       id="g28"
       transform="matrix(0.34465123,0,0,0.34465123,-239.71236,-58.162546)">
	<path
   class="st1"
   d="m 919.43,495.49 c 12.96,0 24.72,-5.07 33.43,-13.34 16.76,-15.92 39.37,-24.21 62.48,-24.21 h 49.1 c 23.25,0 45.97,7.05 65.07,20.31 5.56,3.86 12.31,6.12 19.59,6.12 19.78,0 35.67,-16.68 34.35,-36.75 -1.1,-16.85 -14.62,-30.61 -31.44,-31.99 -8.25,-0.68 -15.95,1.56 -22.19,5.79 -19.03,12.9 -41.12,20.55 -64.1,20.55 h -44.61 c -24.92,0 -49.11,-9.82 -66.06,-28.09 -9.46,-10.19 -23.24,-16.32 -38.43,-15.46 -24.2,1.37 -43.96,20.85 -45.63,45.03 -1.98,28.39 20.47,52.04 48.44,52.04 z"
   id="path26"
   style="fill:#27a9e0" />

	
		<circle
   transform="matrix(0.8507,-0.5257,0.5257,0.8507,51.7062,632.4829)"
   class="st1"
   cx="1139.0699"
   cy="225.23"
   id="ellipse26"
   style="fill:#27a9e0"
   r="34.43" />

	
		<circle
   transform="matrix(0.9239,-0.3827,0.3827,0.9239,-46.1972,415.9479)"
   class="st1"
   cx="1022.46"
   cy="324.10001"
   id="ellipse27"
   style="fill:#27a9e0"
   r="45.810001" />

	<path
   class="st2"
   d="m 1215.2,604.99 c -1.71,-24.16 -21.43,-43.59 -45.62,-44.96 -13.08,-0.74 -25.11,3.69 -34.24,11.45 -19.38,16.46 -44.28,24.97 -69.69,24.15 l -114.14,-3.65 c -28.02,-0.9 -54.88,-12.76 -73.35,-33.86 -10.68,-12.21 -26.86,-19.48 -44.68,-17.96 -25.74,2.2 -46.39,23.11 -48.3,48.87 -2.31,31.18 22.29,57.19 52.98,57.19 13.14,0 25.16,-4.77 34.43,-12.67 20.02,-17.07 45.34,-26.66 71.63,-25.82 l 117.31,3.75 c 26.71,0.85 51.88,12.21 70.68,31.21 8.8,8.9 21.02,14.41 34.53,14.41 28.01,0 50.47,-23.69 48.46,-52.11 z"
   id="path27"
   style="fill:#f6931d" />

	<path
   class="st1"
   d="m 1100.45,703.73 c -12.96,0 -24.72,5.07 -33.43,13.34 -16.76,15.92 -39.37,24.21 -62.48,24.21 h -49.1 c -23.25,0 -45.97,-7.05 -65.07,-20.31 -5.56,-3.86 -12.31,-6.12 -19.59,-6.12 -19.78,0 -35.67,16.68 -34.35,36.75 1.1,16.85 14.62,30.61 31.44,31.99 8.25,0.68 15.95,-1.56 22.19,-5.79 19.03,-12.9 41.12,-20.55 64.1,-20.55 h 44.61 c 24.92,0 49.11,9.82 66.06,28.09 9.46,10.19 23.24,16.32 38.43,15.46 24.2,-1.37 43.96,-20.85 45.63,-45.03 1.99,-28.4 -20.46,-52.04 -48.44,-52.04 z M 880.81,939.55 c -19.01,0 -34.43,15.41 -34.43,34.43 0,19.01 15.41,34.43 34.43,34.43 19.01,0 34.43,-15.41 34.43,-34.43 0,-19.01 -15.41,-34.43 -34.43,-34.43 z M 997.43,829.3 c -25.3,0 -45.81,20.51 -45.81,45.81 0,25.3 20.51,45.81 45.81,45.81 25.3,0 45.81,-20.51 45.81,-45.81 0,-25.3 -20.51,-45.81 -45.81,-45.81 z"
   id="path28"
   style="fill:#27a9e0" />

</g>
  </g>
</svg>
