<?xml version="1.0" encoding="utf-8"?>
<!-- Generator: Adobe Illustrator 27.9.0, SVG Export Plug-In . SVG Version: 6.00 Build 0)  -->
<svg version="1.1" id="Layer_1" xmlns="http://www.w3.org/2000/svg" xmlns:xlink="http://www.w3.org/1999/xlink" x="0px" y="0px"
	 viewBox="0 0 2000 2000" style="enable-background:new 0 0 2000 2000;" xml:space="preserve">
<style type="text/css">
	.st0{fill:#808184;}
	.st1{fill:#27A9E0;}
	.st2{fill:#F6931D;}
	.st3{fill:none;}
</style>
<g>
	<path class="st0" d="M633.89,1755.6c1.97,1.56,3.53,3.5,4.69,5.81c1.16,2.31,1.73,4.78,1.73,7.4c0,3.31-0.84,6.29-2.53,8.95
		c-1.69,2.66-4.14,4.75-7.36,6.28c-3.22,1.53-7.01,2.3-11.39,2.3h-24.37v-65.32h23.43c4.44,0,8.21,0.74,11.34,2.2
		c3.12,1.47,5.47,3.45,7.03,5.95c1.56,2.5,2.34,5.31,2.34,8.43c0,3.87-1.05,7.08-3.14,9.61c-2.09,2.53-4.86,4.36-8.29,5.48
		C629.75,1753.07,631.92,1754.04,633.89,1755.6z M603.2,1749.22h14.34c4,0,7.09-0.94,9.28-2.81c2.19-1.88,3.28-4.47,3.28-7.78
		c0-3.31-1.09-5.9-3.28-7.78c-2.19-1.87-5.34-2.81-9.47-2.81H603.2V1749.22z M628.22,1776.31c2.37-2,3.56-4.78,3.56-8.34
		c0-3.62-1.25-6.48-3.75-8.58c-2.5-2.09-5.84-3.14-10.03-3.14H603.2v23.05h15.09C622.53,1779.31,625.84,1778.31,628.22,1776.31z"/>
	<path class="st0" d="M652.4,1724.95c-1.12-1.12-1.69-2.5-1.69-4.12c0-1.62,0.56-3,1.69-4.12c1.12-1.12,2.5-1.69,4.12-1.69
		c1.56,0,2.89,0.56,3.98,1.69c1.09,1.12,1.64,2.5,1.64,4.12c0,1.63-0.55,3-1.64,4.12c-1.09,1.12-2.42,1.69-3.98,1.69
		C654.9,1726.64,653.52,1726.08,652.4,1724.95z M660.65,1734.98v51.36h-8.53v-51.36H660.65z"/>
	<path class="st0" d="M684.5,1783.9c-3.91-2.19-6.97-5.29-9.18-9.33c-2.22-4.03-3.33-8.7-3.33-14.01c0-5.25,1.14-9.89,3.42-13.92
		c2.28-4.03,5.39-7.12,9.33-9.28c3.94-2.16,8.34-3.23,13.21-3.23c4.87,0,9.28,1.08,13.21,3.23c3.94,2.16,7.04,5.23,9.33,9.23
		c2.28,4,3.42,8.65,3.42,13.96c0,5.31-1.17,9.98-3.51,14.01s-5.51,7.14-9.51,9.33c-4,2.19-8.44,3.28-13.31,3.28
		C692.76,1787.18,688.4,1786.09,684.5,1783.9z M706.19,1777.53c2.69-1.44,4.86-3.59,6.51-6.47c1.65-2.87,2.48-6.37,2.48-10.5
		c0-4.12-0.81-7.62-2.44-10.5c-1.63-2.87-3.75-5.01-6.37-6.42c-2.62-1.41-5.47-2.11-8.53-2.11c-3.12,0-5.98,0.7-8.58,2.11
		c-2.59,1.41-4.67,3.55-6.23,6.42c-1.56,2.88-2.34,6.37-2.34,10.5c0,4.19,0.76,7.72,2.3,10.59c1.53,2.88,3.58,5.01,6.14,6.42
		c2.56,1.41,5.37,2.11,8.44,2.11C700.63,1779.68,703.5,1778.96,706.19,1777.53z"/>
	<path class="st0" d="M743.68,1716.98v69.35h-8.53v-69.35H743.68z"/>
	<path class="st0" d="M767.53,1783.9c-3.91-2.19-6.97-5.29-9.18-9.33c-2.22-4.03-3.33-8.7-3.33-14.01c0-5.25,1.14-9.89,3.42-13.92
		c2.28-4.03,5.39-7.12,9.33-9.28c3.94-2.16,8.34-3.23,13.21-3.23c4.87,0,9.28,1.08,13.21,3.23c3.94,2.16,7.04,5.23,9.33,9.23
		c2.28,4,3.42,8.65,3.42,13.96c0,5.31-1.17,9.98-3.51,14.01s-5.51,7.14-9.51,9.33c-4,2.19-8.44,3.28-13.31,3.28
		C775.79,1787.18,771.43,1786.09,767.53,1783.9z M789.23,1777.53c2.69-1.44,4.86-3.59,6.51-6.47c1.65-2.87,2.48-6.37,2.48-10.5
		c0-4.12-0.81-7.62-2.44-10.5c-1.63-2.87-3.75-5.01-6.37-6.42c-2.62-1.41-5.47-2.11-8.53-2.11c-3.12,0-5.98,0.7-8.58,2.11
		c-2.59,1.41-4.67,3.55-6.23,6.42c-1.56,2.88-2.34,6.37-2.34,10.5c0,4.19,0.76,7.72,2.3,10.59c1.53,2.88,3.58,5.01,6.14,6.42
		c2.56,1.41,5.37,2.11,8.44,2.11C783.66,1779.68,786.54,1778.96,789.23,1777.53z"/>
	<path class="st0" d="M851.03,1737.04c3.34,1.94,5.83,4.37,7.45,7.31v-9.37h8.62v52.48c0,4.69-1,8.86-3,12.51
		c-2,3.66-4.86,6.51-8.58,8.58c-3.72,2.06-8.04,3.09-12.98,3.09c-6.75,0-12.37-1.59-16.87-4.78s-7.15-7.53-7.97-13.03h8.44
		c0.94,3.12,2.87,5.64,5.81,7.54c2.94,1.91,6.47,2.86,10.59,2.86c4.69,0,8.51-1.47,11.48-4.41c2.97-2.94,4.45-7.06,4.45-12.37
		v-10.78c-1.69,3-4.19,5.5-7.5,7.5c-3.31,2-7.19,3-11.62,3c-4.56,0-8.7-1.12-12.42-3.37c-3.72-2.25-6.64-5.4-8.76-9.47
		c-2.12-4.06-3.19-8.68-3.19-13.87c0-5.25,1.06-9.86,3.19-13.82c2.12-3.97,5.04-7.04,8.76-9.23c3.72-2.19,7.86-3.28,12.42-3.28
		C843.8,1734.13,847.69,1735.1,851.03,1737.04z M856.14,1750.44c-1.56-2.87-3.67-5.08-6.33-6.61c-2.66-1.53-5.58-2.3-8.76-2.3
		c-3.19,0-6.09,0.75-8.72,2.25c-2.62,1.5-4.72,3.69-6.28,6.56c-1.56,2.88-2.34,6.25-2.34,10.12c0,3.94,0.78,7.36,2.34,10.26
		c1.56,2.91,3.65,5.12,6.28,6.65c2.62,1.53,5.53,2.3,8.72,2.3c3.19,0,6.11-0.76,8.76-2.3c2.66-1.53,4.76-3.75,6.33-6.65
		c1.56-2.91,2.34-6.29,2.34-10.17C858.48,1756.69,857.7,1753.32,856.14,1750.44z"/>
	<path class="st0" d="M925.77,1734.98l-30.93,75.54h-8.81l10.12-24.74l-20.71-50.79h9.47l16.12,41.61l15.93-41.61H925.77z"/>
	<path class="st0" d="M975.54,1737.04c3.37-1.94,7.22-2.91,11.53-2.91c4.62,0,8.78,1.09,12.46,3.28c3.69,2.19,6.59,5.26,8.72,9.23
		c2.12,3.97,3.19,8.58,3.19,13.82c0,5.19-1.06,9.81-3.19,13.87c-2.12,4.06-5.05,7.22-8.76,9.47c-3.72,2.25-7.86,3.37-12.42,3.37
		c-4.44,0-8.33-0.97-11.67-2.91c-3.34-1.94-5.86-4.41-7.54-7.4v9.47h-8.53v-69.35h8.53v27.55
		C969.6,1741.48,972.16,1738.98,975.54,1737.04z M1000.37,1750.35c-1.56-2.87-3.67-5.06-6.33-6.56c-2.66-1.5-5.58-2.25-8.76-2.25
		c-3.12,0-6.01,0.77-8.67,2.3c-2.66,1.53-4.78,3.75-6.37,6.65c-1.59,2.91-2.39,6.26-2.39,10.08c0,3.87,0.8,7.26,2.39,10.17
		c1.59,2.91,3.72,5.12,6.37,6.65c2.65,1.53,5.54,2.3,8.67,2.3c3.19,0,6.11-0.76,8.76-2.3c2.65-1.53,4.76-3.75,6.33-6.65
		c1.56-2.91,2.34-6.33,2.34-10.26C1002.71,1756.6,1001.93,1753.22,1000.37,1750.35z"/>
	<path class="st0" d="M1066.91,1734.98l-30.93,75.54h-8.81l10.12-24.74l-20.71-50.79h9.46l16.12,41.61l15.93-41.61H1066.91z"/>
	<path class="st0" d="M1139.31,1725c5.22,2.66,9.22,6.45,12,11.39c2.78,4.94,4.17,10.75,4.17,17.43c0,6.69-1.39,12.48-4.17,17.38
		c-2.78,4.91-6.78,8.65-12,11.25c-5.22,2.59-11.39,3.89-18.51,3.89h-20.34v-65.32h20.34
		C1127.92,1721.01,1134.09,1722.34,1139.31,1725z M1140.1,1772.61c4.44-4.47,6.65-10.73,6.65-18.79c0-8.12-2.24-14.46-6.7-19.02
		c-4.47-4.56-10.89-6.84-19.26-6.84h-11.81v51.36h11.81C1129.23,1779.31,1135.67,1777.07,1140.1,1772.61z"/>
	<path class="st0" d="M1213.3,1763.84h-41.05c0.31,5.06,2.04,9.01,5.2,11.86c3.15,2.84,6.98,4.26,11.48,4.26
		c3.69,0,6.76-0.86,9.23-2.58c2.47-1.72,4.2-4.01,5.2-6.89h9.18c-1.38,4.94-4.12,8.95-8.25,12.04c-4.12,3.09-9.25,4.64-15.37,4.64
		c-4.87,0-9.23-1.09-13.07-3.28c-3.84-2.19-6.86-5.29-9.04-9.33c-2.19-4.03-3.28-8.7-3.28-14.01c0-5.31,1.06-9.96,3.19-13.96
		c2.12-4,5.11-7.08,8.95-9.23c3.84-2.16,8.26-3.23,13.26-3.23c4.87,0,9.18,1.06,12.93,3.19c3.75,2.12,6.64,5.05,8.67,8.76
		c2.03,3.72,3.04,7.92,3.04,12.6C1213.58,1760.31,1213.49,1762.03,1213.3,1763.84z M1202.61,1748.52c-1.44-2.34-3.39-4.12-5.86-5.34
		c-2.47-1.22-5.2-1.83-8.2-1.83c-4.31,0-7.98,1.38-11.01,4.12c-3.03,2.75-4.77,6.56-5.2,11.43h32.43
		C1204.77,1753.66,1204.05,1750.86,1202.61,1748.52z"/>
	<path class="st0" d="M1232.42,1785.16c-3.12-1.34-5.59-3.22-7.4-5.62c-1.81-2.4-2.81-5.17-3-8.29h8.81
		c0.25,2.56,1.45,4.66,3.61,6.28c2.16,1.62,4.98,2.44,8.48,2.44c3.25,0,5.81-0.72,7.69-2.16c1.87-1.44,2.81-3.25,2.81-5.44
		c0-2.25-1-3.92-3-5.01c-2-1.09-5.09-2.17-9.28-3.23c-3.81-1-6.92-2.02-9.33-3.05c-2.41-1.03-4.47-2.56-6.19-4.59
		c-1.72-2.03-2.58-4.7-2.58-8.01c0-2.62,0.78-5.03,2.34-7.22c1.56-2.19,3.78-3.92,6.65-5.2c2.87-1.28,6.15-1.92,9.84-1.92
		c5.68,0,10.28,1.44,13.78,4.31c3.5,2.88,5.37,6.81,5.62,11.81h-8.53c-0.19-2.69-1.27-4.84-3.23-6.47
		c-1.97-1.62-4.61-2.44-7.92-2.44c-3.06,0-5.5,0.66-7.31,1.97c-1.81,1.31-2.72,3.03-2.72,5.15c0,1.69,0.55,3.08,1.64,4.17
		c1.09,1.09,2.47,1.97,4.12,2.62c1.66,0.66,3.95,1.39,6.89,2.2c3.69,1,6.68,1.98,9,2.95c2.31,0.97,4.29,2.42,5.95,4.36
		c1.65,1.94,2.51,4.47,2.58,7.59c0,2.81-0.78,5.34-2.34,7.59c-1.56,2.25-3.77,4.02-6.61,5.29c-2.84,1.28-6.11,1.92-9.79,1.92
		C1239.07,1787.18,1235.54,1786.51,1232.42,1785.16z"/>
	<path class="st0" d="M1274.02,1724.95c-1.12-1.12-1.69-2.5-1.69-4.12c0-1.62,0.56-3,1.69-4.12c1.12-1.12,2.5-1.69,4.12-1.69
		c1.56,0,2.89,0.56,3.98,1.69c1.09,1.12,1.64,2.5,1.64,4.12c0,1.63-0.55,3-1.64,4.12c-1.09,1.12-2.42,1.69-3.98,1.69
		C1276.52,1726.64,1275.15,1726.08,1274.02,1724.95z M1282.27,1734.98v51.36h-8.53v-51.36H1282.27z"/>
	<path class="st0" d="M1329.65,1737.04c3.34,1.94,5.83,4.37,7.45,7.31v-9.37h8.62v52.48c0,4.69-1,8.86-3,12.51
		c-2,3.66-4.86,6.51-8.58,8.58c-3.72,2.06-8.05,3.09-12.98,3.09c-6.75,0-12.37-1.59-16.87-4.78s-7.16-7.53-7.97-13.03h8.43
		c0.94,3.12,2.87,5.64,5.81,7.54c2.94,1.91,6.47,2.86,10.59,2.86c4.69,0,8.51-1.47,11.48-4.41c2.97-2.94,4.45-7.06,4.45-12.37
		v-10.78c-1.69,3-4.19,5.5-7.5,7.5c-3.31,2-7.19,3-11.62,3c-4.56,0-8.7-1.12-12.42-3.37c-3.72-2.25-6.64-5.4-8.76-9.47
		c-2.12-4.06-3.19-8.68-3.19-13.87c0-5.25,1.06-9.86,3.19-13.82c2.12-3.97,5.04-7.04,8.76-9.23c3.72-2.19,7.86-3.28,12.42-3.28
		C1322.41,1734.13,1326.3,1735.1,1329.65,1737.04z M1334.75,1750.44c-1.56-2.87-3.67-5.08-6.33-6.61c-2.66-1.53-5.58-2.3-8.76-2.3
		s-6.09,0.75-8.72,2.25c-2.62,1.5-4.72,3.69-6.28,6.56c-1.56,2.88-2.34,6.25-2.34,10.12c0,3.94,0.78,7.36,2.34,10.26
		c1.56,2.91,3.66,5.12,6.28,6.65c2.62,1.53,5.53,2.3,8.72,2.3s6.11-0.76,8.76-2.3c2.65-1.53,4.76-3.75,6.33-6.65
		c1.56-2.91,2.34-6.29,2.34-10.17C1337.1,1756.69,1336.31,1753.32,1334.75,1750.44z"/>
	<path class="st0" d="M1400.36,1739.71c3.87,3.78,5.81,9.23,5.81,16.35v30.27h-8.43v-29.05c0-5.12-1.28-9.04-3.84-11.76
		c-2.56-2.72-6.06-4.08-10.5-4.08c-4.5,0-8.08,1.41-10.73,4.22c-2.66,2.81-3.98,6.9-3.98,12.28v28.4h-8.53v-51.36h8.53v7.31
		c1.69-2.62,3.98-4.65,6.89-6.09c2.91-1.44,6.11-2.16,9.61-2.16C1391.42,1734.04,1396.48,1735.93,1400.36,1739.71z"/>
</g>
<g>
	<g>
		<path class="st0" d="M407.7,1494.23v14.08h-15.13v139.48h15.13v14.23h-31.16v-167.79H407.7z"/>
		<path class="st0" d="M490.37,1554.08c5.04-2.55,10.66-3.82,16.85-3.82c7.29,0,13.88,1.75,19.78,5.24
			c5.89,3.5,10.54,8.46,13.93,14.91c3.39,6.44,5.09,13.81,5.09,22.1c0,8.29-1.7,15.71-5.09,22.25c-3.4,6.54-8.07,11.64-14.01,15.28
			c-5.94,3.65-12.51,5.47-19.7,5.47c-6.39,0-12.06-1.25-17-3.75c-4.94-2.49-8.86-5.69-11.76-9.59v11.99h-17.08v-110.86h17.08v40.6
			C481.36,1559.9,485.33,1556.62,490.37,1554.08z M525.13,1577.75c-2.35-4.14-5.44-7.29-9.29-9.44c-3.85-2.15-7.97-3.22-12.36-3.22
			c-4.3,0-8.37,1.1-12.21,3.3c-3.85,2.2-6.94,5.39-9.29,9.59c-2.35,4.19-3.52,9.14-3.52,14.83c0,5.69,1.17,10.66,3.52,14.91
			c2.35,4.25,5.44,7.47,9.29,9.66c3.84,2.2,7.91,3.3,12.21,3.3c4.39,0,8.51-1.12,12.36-3.37c3.84-2.25,6.94-5.52,9.29-9.81
			c2.35-4.29,3.52-9.29,3.52-14.98C528.65,1586.81,527.47,1581.9,525.13,1577.75z"/>
		<path class="st0" d="M623.78,1537.52c-2.1-2.1-3.15-4.69-3.15-7.79c0-3.09,1.05-5.69,3.15-7.79c2.1-2.1,4.69-3.15,7.79-3.15
			c3,0,5.54,1.05,7.64,3.15c2.1,2.1,3.15,4.7,3.15,7.79c0,3.1-1.05,5.69-3.15,7.79c-2.1,2.1-4.64,3.15-7.64,3.15
			C628.47,1540.67,625.88,1539.62,623.78,1537.52z M639.96,1551.61v82.55h-17.08v-82.55H639.96z"/>
		<path class="st0" d="M737.04,1630.18c-6.29-3.54-11.24-8.54-14.83-14.98c-3.6-6.44-5.39-13.91-5.39-22.4
			c0-8.39,1.85-15.83,5.54-22.32c3.69-6.49,8.74-11.48,15.13-14.98c6.39-3.49,13.53-5.24,21.42-5.24c7.89,0,15.03,1.75,21.42,5.24
			c6.39,3.5,11.43,8.49,15.13,14.98c3.69,6.49,5.54,13.93,5.54,22.32s-1.9,15.83-5.69,22.32c-3.8,6.49-8.97,11.51-15.51,15.06
			c-6.54,3.55-13.76,5.32-21.65,5.32C750.37,1635.5,743.33,1633.73,737.04,1630.18z M770.52,1617.53c3.84-2.1,6.97-5.24,9.36-9.44
			c2.4-4.19,3.6-9.29,3.6-15.28s-1.15-11.06-3.45-15.21c-2.3-4.14-5.34-7.27-9.14-9.36c-3.8-2.1-7.89-3.15-12.29-3.15
			c-4.4,0-8.46,1.05-12.21,3.15c-3.75,2.1-6.72,5.22-8.91,9.36c-2.2,4.15-3.3,9.21-3.3,15.21c0,8.89,2.27,15.76,6.82,20.6
			c4.54,4.85,10.26,7.27,17.15,7.27C762.56,1620.67,766.68,1619.62,770.52,1617.53z"/>
		<path class="st0" d="M988.73,1551.61l-25.62,82.55h-17.98l-16.63-60.98l-16.63,60.98H893.9l-25.77-82.55h17.38l17.23,66.37
			l17.53-66.37h17.83l16.78,66.07l17.08-66.07H988.73z"/>
		<path class="st0" d="M1076.07,1630.18c-6.29-3.54-11.24-8.54-14.83-14.98c-3.6-6.44-5.39-13.91-5.39-22.4
			c0-8.39,1.85-15.83,5.54-22.32c3.69-6.49,8.74-11.48,15.13-14.98c6.39-3.49,13.53-5.24,21.42-5.24c7.89,0,15.03,1.75,21.42,5.24
			c6.39,3.5,11.44,8.49,15.13,14.98c3.69,6.49,5.54,13.93,5.54,22.32s-1.9,15.83-5.69,22.32c-3.8,6.49-8.96,11.51-15.5,15.06
			c-6.54,3.55-13.76,5.32-21.65,5.32C1089.4,1635.5,1082.36,1633.73,1076.07,1630.18z M1109.56,1617.53
			c3.84-2.1,6.97-5.24,9.36-9.44c2.4-4.19,3.6-9.29,3.6-15.28s-1.15-11.06-3.45-15.21c-2.3-4.14-5.34-7.27-9.14-9.36
			c-3.8-2.1-7.89-3.15-12.29-3.15c-4.4,0-8.46,1.05-12.21,3.15c-3.75,2.1-6.72,5.22-8.91,9.36c-2.2,4.15-3.3,9.21-3.3,15.21
			c0,8.89,2.27,15.76,6.82,20.6c4.54,4.85,10.26,7.27,17.16,7.27C1101.59,1620.67,1105.71,1619.62,1109.56,1617.53z"/>
		<path class="st0" d="M1243.94,1553.78c4.14-2.35,9.06-3.52,14.76-3.52v17.68h-4.34c-6.69,0-11.76,1.7-15.21,5.09
			c-3.44,3.4-5.17,9.29-5.17,17.68v43.45h-17.08v-82.55h17.08v11.98C1236.47,1559.4,1239.79,1556.13,1243.94,1553.78z"/>
		<path class="st0" d="M1367.01,1592.96l38.05,41.2h-23.07l-30.56-35.51v35.51h-17.08v-110.86h17.08v64.42l29.96-36.11h23.67
			L1367.01,1592.96z"/>
		<path class="st0" d="M1489.78,1631.98c-5.15-2.35-9.21-5.54-12.21-9.59c-3-4.04-4.59-8.56-4.79-13.56h17.68
			c0.3,3.5,1.97,6.42,5.02,8.76c3.05,2.35,6.87,3.52,11.46,3.52c4.79,0,8.51-0.92,11.16-2.77c2.65-1.85,3.97-4.22,3.97-7.12
			c0-3.1-1.48-5.39-4.42-6.89c-2.95-1.5-7.62-3.15-14.01-4.94c-6.19-1.7-11.24-3.35-15.13-4.94c-3.9-1.6-7.27-4.04-10.11-7.34
			c-2.85-3.3-4.27-7.64-4.27-13.03c0-4.39,1.3-8.41,3.9-12.06c2.6-3.64,6.31-6.52,11.16-8.62c4.84-2.1,10.41-3.15,16.7-3.15
			c9.39,0,16.95,2.37,22.7,7.12c5.74,4.75,8.81,11.21,9.21,19.4h-17.08c-0.3-3.69-1.8-6.64-4.49-8.84c-2.7-2.2-6.34-3.3-10.94-3.3
			c-4.49,0-7.94,0.85-10.34,2.55c-2.4,1.7-3.6,3.95-3.6,6.74c0,2.2,0.8,4.04,2.4,5.54c1.6,1.5,3.54,2.67,5.84,3.52
			c2.3,0.85,5.69,1.92,10.19,3.22c5.99,1.6,10.91,3.22,14.76,4.87c3.84,1.65,7.17,4.07,9.96,7.27c2.79,3.2,4.24,7.44,4.34,12.74
			c0,4.7-1.3,8.89-3.9,12.58c-2.6,3.7-6.27,6.59-11.01,8.69c-4.75,2.1-10.31,3.15-16.7,3.15
			C1500.74,1635.5,1494.93,1634.33,1489.78,1631.98z"/>
		<path class="st0" d="M1623.83,1662.02h-31.16v-14.23h15.13v-139.48h-15.13v-14.08h31.16V1662.02z"/>
	</g>
</g>
<g>
	<path class="st1" d="M919.43,495.49c12.96,0,24.72-5.07,33.43-13.34c16.76-15.92,39.37-24.21,62.48-24.21h49.1
		c23.25,0,45.97,7.05,65.07,20.31c5.56,3.86,12.31,6.12,19.59,6.12c19.78,0,35.67-16.68,34.35-36.75
		c-1.1-16.85-14.62-30.61-31.44-31.99c-8.25-0.68-15.95,1.56-22.19,5.79c-19.03,12.9-41.12,20.55-64.1,20.55h-44.61
		c-24.92,0-49.11-9.82-66.06-28.09c-9.46-10.19-23.24-16.32-38.43-15.46c-24.2,1.37-43.96,20.85-45.63,45.03
		C869.01,471.84,891.46,495.49,919.43,495.49z"/>
	
		<ellipse transform="matrix(0.8507 -0.5257 0.5257 0.8507 51.7062 632.4829)" class="st1" cx="1139.07" cy="225.23" rx="34.43" ry="34.43"/>
	
		<ellipse transform="matrix(0.9239 -0.3827 0.3827 0.9239 -46.1972 415.9479)" class="st1" cx="1022.46" cy="324.1" rx="45.81" ry="45.81"/>
	<path class="st2" d="M1215.2,604.99c-1.71-24.16-21.43-43.59-45.62-44.96c-13.08-0.74-25.11,3.69-34.24,11.45
		c-19.38,16.46-44.28,24.97-69.69,24.15l-114.14-3.65c-28.02-0.9-54.88-12.76-73.35-33.86c-10.68-12.21-26.86-19.48-44.68-17.96
		c-25.74,2.2-46.39,23.11-48.3,48.87c-2.31,31.18,22.29,57.19,52.98,57.19c13.14,0,25.16-4.77,34.43-12.67
		c20.02-17.07,45.34-26.66,71.63-25.82l117.31,3.75c26.71,0.85,51.88,12.21,70.68,31.21c8.8,8.9,21.02,14.41,34.53,14.41
		C1194.75,657.1,1217.21,633.41,1215.2,604.99z"/>
	<path class="st1" d="M1100.45,703.73c-12.96,0-24.72,5.07-33.43,13.34c-16.76,15.92-39.37,24.21-62.48,24.21h-49.1
		c-23.25,0-45.97-7.05-65.07-20.31c-5.56-3.86-12.31-6.12-19.59-6.12c-19.78,0-35.67,16.68-34.35,36.75
		c1.1,16.85,14.62,30.61,31.44,31.99c8.25,0.68,15.95-1.56,22.19-5.79c19.03-12.9,41.12-20.55,64.1-20.55h44.61
		c24.92,0,49.11,9.82,66.06,28.09c9.46,10.19,23.24,16.32,38.43,15.46c24.2-1.37,43.96-20.85,45.63-45.03
		C1150.88,727.37,1128.43,703.73,1100.45,703.73z M880.81,939.55c-19.01,0-34.43,15.41-34.43,34.43c0,19.01,15.41,34.43,34.43,34.43
		c19.01,0,34.43-15.41,34.43-34.43C915.24,954.97,899.83,939.55,880.81,939.55z M997.43,829.3c-25.3,0-45.81,20.51-45.81,45.81
		s20.51,45.81,45.81,45.81c25.3,0,45.81-20.51,45.81-45.81S1022.73,829.3,997.43,829.3z"/>
</g>
<g>
	<path class="st0" d="M409.62,1109.55v211.88c0,33.39,7.95,58.11,23.84,74.16c15.89,16.06,37.64,24.08,65.25,24.08
		c27.61,0,49.19-7.95,64.77-23.84c15.57-15.89,23.35-40.69,23.35-74.4v-211.88h33.71v211.4c0,42.7-11.32,74.81-33.95,96.31
		c-22.63,21.51-52.09,32.26-88.36,32.26c-36.28,0-65.73-10.75-88.36-32.26c-22.63-21.5-33.95-53.61-33.95-96.31v-211.4H409.62z"/>
	<path class="st0" d="M996.76,1109.55v336.6h-33.71v-336.6H996.76z"/>
	<path class="st0" d="M813.3,1303.13c27.28-5.13,47.91-16.29,61.88-33.47c13.96-17.17,20.95-37.96,20.95-62.36
		c0-29.21-9.71-52.8-29.13-70.79c-19.43-17.98-47.91-26.97-85.47-26.97h-57.68c-23.99,0-43.45,19.45-43.45,43.45v293.16h33.71
		v-291.62c0-9.15,7.42-16.57,16.57-16.57h50.85c27.61,0,47.83,6.02,60.67,18.06c12.84,12.04,19.26,29.13,19.26,51.28
		c0,21.51-6.67,38.69-19.98,51.53c-13.32,12.84-33.15,19.26-59.47,19.26h-22.04l99.57,168.06h40.45L813.3,1303.13z"/>
	<path class="st0" d="M1483.11,1113.88L1483.11,1113.88c-11.42,0-21.64,7.11-25.6,17.83l-116.21,314.44h35.63l105.94-289.89
		l105.94,289.89h35.63l-115.74-314.41C1504.77,1121.01,1494.55,1113.88,1483.11,1113.88z"/>
	<polygon class="st3" points="1107.14,1266.89 1107.03,1109.55 1107.03,1267.01 	"/>
	<polygon class="st0" points="1107.03,1267.01 1107.03,1109.55 1073.32,1109.55 1073.32,1446.15 1107.03,1446.15 1107.03,1290.61 
		1107.16,1290.75 1107.14,1266.89 	"/>
	<path class="st0" d="M1312.54,1446.15l-158.91-168.54l157.47-168.06h-42.86l-137.71,148.62c-5.19,5.61-8.08,12.97-8.07,20.61l0,0
		c0.01,7.69,2.94,15.09,8.2,20.7l137.58,146.67H1312.54z"/>
</g>
</svg>
